# xmcd
# Copyright (C) 1995-1998 Ti Kan
#
# Track frame offsets:
#       150
#       84094
#       150133
#
# Disc length: 3090 seconds
#
# Revision: 0
# Processed by: cddbd v1.5.2PL0 Copyright (c) Steve Scherf et al.
# Submitted via: CD-Transfer v1.0
#
DISCID=0a0c1003
DTITLE=Radio 32 - 
DYEAR=09
DGENRE=
TTITLE0=Schnitzelbänke Olten 2009 (Teil1)
TTITLE1=Schnitzelbänke Olten 2009 (Teil2)
TTITLE2=Schnitzelbänke Olten 2009 (Teil3)
EXTD=
EXTT0=
EXTT1=
EXTT2=
PLAYORDER=
